<svg width="320" height="127" viewBox="0 0 320 127" fill="none" xmlns="http://www.w3.org/2000/svg">
<path fill-rule="evenodd" clip-rule="evenodd" d="M283.053 58.6205L251.22 0H153.013L184.7 58.6205H283.053ZM127.787 60.9066C135 67.1697 146.707 68.2391 157.973 68.2391H177.64L209.48 127H128.387C118.027 127 107.82 126.699 97.7533 124.259C87.5467 121.659 78.8333 117.535 70.5733 111.279C53.3067 98.7659 43.8467 81.6677 33.9333 63.353C25.8207 48.5337 17.7851 33.6722 9.82667 18.7693C6.55333 12.6532 3.27333 6.54384 0 0.46121H91.1467C91.6 1.26332 94.9 7.366 98.9133 14.7855C104.239 24.6896 109.61 34.5689 115.027 44.4232C118.48 50.6797 121.78 56.1741 127.793 60.9066H127.787ZM221.8 127L189.967 68.0787H288.02L320 127H221.8Z" fill="#1A1A1A"/>
</svg>
